<svg xmlns="http://www.w3.org/2000/svg" viewBox="0 0 632.59 225.99"><defs><style>.cls-1{fill:#f05a28;}.cls-2{fill:#f6921e;}.cls-3{fill:#652d90;}.cls-4{fill:#9e1f63;}.cls-5{fill:#ec1c24;}.cls-6{fill:#d91c5c;}.cls-7{font-size:121.12px;font-family:CenturyGothic-Bold, Century Gothic;font-weight:700;}</style></defs><title>Fichier 4</title><g id="Calque_2" data-name="Calque 2"><g id="Layer_1" data-name="Layer 1"><path class="cls-1" d="M139.34,127.75l34.76,20A154.79,154.79,0,0,0,175.85,125L138.17,103.4A162.22,162.22,0,0,1,139.34,127.75Z"/><path class="cls-1" d="M154.1,155.4,137.72,146a145.31,145.31,0,0,1-4.92,21.73Z"/><path class="cls-1" d="M130.29,37.7l31,17.88a188.58,188.58,0,0,0-14.6-27.42L97.86,0,92.25,3.24a198.07,198.07,0,0,1,17,22.29Z"/><path class="cls-1" d="M122.09,193A129.53,129.53,0,0,1,97,225.47l.91.52,63.2-36.49a136.94,136.94,0,0,0,9.33-24.37Z"/><path class="cls-1" d="M156.49,94.79l6.21,3.55v-23l-2.21-1.07L124.38,53.44A183,183,0,0,1,134.21,82Z"/><path class="cls-2" d="M146.64,28.16a188.58,188.58,0,0,1,14.6,27.42l18,10.41v61l-3.42-2a154.79,154.79,0,0,1-1.75,22.76l5.17,3V160l-8.88,5.12a136.94,136.94,0,0,1-9.33,24.37l34.66-20V56.5Z"/><path class="cls-3" d="M16.44,160V99.73l13.16,7.55a171.5,171.5,0,0,0-4-25.95l-9.13-5.26V66l4-2.32c-1.8-5.19-3.83-10.35-6.13-15.45L0,56.5v113l17.66,10.2a135.32,135.32,0,0,0,5.86-15.6Z"/><path class="cls-4" d="M49.59,46.85c-2.31-4.92-4.84-9.8-7.61-14.59l-27.65,16c2.3,5.1,4.33,10.26,6.13,15.45Z"/><path class="cls-4" d="M23.52,164.09a135.32,135.32,0,0,1-5.86,15.6L46.1,196.11a132.85,132.85,0,0,0,7.69-14.54Z"/><path class="cls-4" d="M40.9,71,62.18,83.29A177.31,177.31,0,0,0,56,62.3Z"/><path class="cls-4" d="M33,128.37v22.06l26.75,15.44a144.84,144.84,0,0,0,4.65-19.47Z"/><path class="cls-4" d="M65.67,104.44,25.57,81.33a171.5,171.5,0,0,1,4,26l36.74,21.1A162.85,162.85,0,0,0,65.67,104.44Z"/><path class="cls-5" d="M84.88,45.62a187.42,187.42,0,0,1,7.4,17.46l4.48-2.59L134.21,82a183,183,0,0,0-9.83-28.55L97.86,38.13Z"/><path class="cls-5" d="M102.19,106.35l37.15,21.4a162.22,162.22,0,0,0-1.17-24.35L97.57,80.08A170.82,170.82,0,0,1,102.19,106.35Z"/><path class="cls-5" d="M122.09,193,97.86,207l-15.75-9.09a130.39,130.39,0,0,1-9.55,13.47L97,225.47A129.53,129.53,0,0,0,122.09,193Z"/><path class="cls-5" d="M100.76,148.15l14.16,8.14-16.6,9.58L96.83,165A138.13,138.13,0,0,1,90,183.3l7.9,4.56,34.94-20.17A145.31,145.31,0,0,0,137.72,146L102.91,125.9A153.41,153.41,0,0,1,100.76,148.15Z"/><path class="cls-5" d="M97.88,19c2,1.16,5.42,3.15,11.33,6.56a198.07,198.07,0,0,0-17-22.29L68,17.27c3.25,4.5,6.24,9.1,9,13.77Z"/><path class="cls-6" d="M97.57,80.08l-17.41-10,12.12-7a187.42,187.42,0,0,0-7.4-17.46L56,62.3a177.31,177.31,0,0,1,6.19,21l40,23.06A170.82,170.82,0,0,0,97.57,80.08Z"/><path class="cls-6" d="M102.91,125.9,65.67,104.44a162.85,162.85,0,0,1,.67,23.94l34.42,19.77A153.41,153.41,0,0,0,102.91,125.9Z"/><path class="cls-6" d="M64.42,146.4a144.84,144.84,0,0,1-4.65,19.47L90,183.3A138.13,138.13,0,0,0,96.83,165Z"/><path class="cls-6" d="M53.79,181.57a132.85,132.85,0,0,1-7.69,14.54l26.46,15.28a130.39,130.39,0,0,0,9.55-13.47Z"/><path class="cls-6" d="M77,31c-2.79-4.67-5.78-9.27-9-13.77l-26,15c2.77,4.79,5.3,9.67,7.61,14.59Z"/><text class="cls-7" transform="translate(252.97 156.83) scale(1.11 1)">Slekni</text></g></g></svg>